<svg xmlns="http://www.w3.org/2000/svg" version="1.1" xmlns:xlink="http://www.w3.org/1999/xlink" xmlns:svgjs="http://svgjs.dev/svgjs" width="1000" height="623" viewBox="0 0 1000 623"><g transform="matrix(1,0,0,1,-0.6060491464751863,0.2522267206477409)"><svg viewBox="0 0 396 247" data-background-color="#ffffff" preserveAspectRatio="xMidYMid meet" height="623" width="1000" xmlns="http://www.w3.org/2000/svg" xmlns:xlink="http://www.w3.org/1999/xlink"><g id="tight-bounds" transform="matrix(1,0,0,1,0.23999552109262368,-0.09999999999999432)"><svg viewBox="0 0 395.52 247.2" height="247.2" width="395.52"><g><svg></svg></g><g><svg viewBox="0 0 395.52 247.2" height="247.2" width="395.52"><g><g><path xmlns="http://www.w3.org/2000/svg" d="M320.821 247.2h-79.406l0-86.183 79.406 0zM154.105 247.2h-79.406l0-86.183 79.406 0zM74.699 0h79.406l0 86.183-79.406 0zM241.415 0h79.406v86.183h-79.406z" fill="#000000" fill-rule="nonzero" stroke="none" stroke-width="1" stroke-linecap="butt" stroke-linejoin="miter" stroke-miterlimit="10" stroke-dasharray="" stroke-dashoffset="0" font-family="none" font-weight="none" font-size="none" text-anchor="none" style="mix-blend-mode: normal" data-fill-palette-color="tertiary"></path></g></g><g transform="matrix(1,0,0,1,2.842170943040401e-14,94.63609022556392)"><svg viewBox="0 0 395.5199999999999 57.927819548872165" height="57.927819548872165" width="395.5199999999999"><g><svg viewBox="0 0 395.5199999999999 57.927819548872165" height="57.927819548872165" width="395.5199999999999"><g><svg viewBox="0 0 395.5199999999999 57.927819548872165" height="57.927819548872165" width="395.5199999999999"><g><svg viewBox="0 0 395.5199999999999 57.927819548872165" height="57.927819548872165" width="395.5199999999999"><g><svg viewBox="0 0 395.5199999999999 57.927819548872165" height="57.927819548872165" width="395.5199999999999"><g><svg viewBox="0 0 395.5199999999999 57.927819548872165" height="57.927819548872165" width="395.5199999999999"><g transform="matrix(1,0,0,1,0,0)"><svg width="395.5199999999999" viewBox="3.700000047683716 -36.25 319.17999267578125 46.75" height="57.927819548872165" data-palette-color="#000000"><path d="M37.95 0L26.9 0 26.9-13.05 14.75-13.05 14.75 0 3.7 0 3.7-34.4 14.75-34.4 14.75-21.85 26.9-21.85 26.9-34.4 37.95-34.4 37.95 0ZM57.7-27Q63.75-27 67.55-24.98 71.35-22.95 71.35-18.4L71.35-18.4 71.35-8.1Q71.35-7.25 71.75-6.7 72.15-6.15 72.95-6.15L72.95-6.15 74.75-6.15 74.75-0.4Q74.6-0.3 73.97-0.08 73.35 0.15 72.2 0.38 71.05 0.6 69.55 0.6L69.55 0.6Q66.65 0.6 64.77-0.28 62.9-1.15 62.2-2.7L62.2-2.7Q60.3-1.2 57.95-0.3 55.6 0.6 52.45 0.6L52.45 0.6Q43.15 0.6 43.15-6.8L43.15-6.8Q43.15-10.65 45.22-12.68 47.3-14.7 51.2-15.45 55.1-16.2 61.4-16.2L61.4-16.2 61.4-17.5Q61.4-19.05 60.32-19.85 59.25-20.65 57.55-20.65L57.55-20.65Q56-20.65 54.87-20.1 53.75-19.55 53.75-18.35L53.75-18.35 53.75-18.15 43.95-18.15Q43.9-18.4 43.9-18.85L43.9-18.85Q43.9-22.6 47.47-24.8 51.05-27 57.7-27L57.7-27ZM61.4-11.5Q57.15-11.5 55.12-10.58 53.1-9.65 53.1-8.1L53.1-8.1Q53.1-5.6 56.5-5.6L56.5-5.6Q58.45-5.6 59.92-6.65 61.4-7.7 61.4-9.25L61.4-9.25 61.4-11.5ZM90.55-27Q95.84-27 99.52-24.93 103.2-22.85 103.2-18.5L103.2-18.5 93.95-18.5Q93.95-19.95 92.65-20.55L92.65-20.55Q91.75-21.05 90.4-21.05L90.4-21.05Q86.8-21.05 86.8-19.35L86.8-19.35Q86.8-18.4 88.05-18 89.3-17.6 92.15-17.15L92.15-17.15Q95.65-16.65 98-15.98 100.34-15.3 102.09-13.58 103.84-11.85 103.84-8.75L103.84-8.75Q103.84-3.7 100.07-1.55 96.3 0.6 90.2 0.6L90.2 0.6Q86.7 0.6 83.59-0.38 80.5-1.35 78.55-3.4 76.59-5.45 76.59-8.6L76.59-8.6 85.84-8.6 85.84-8.4Q85.9-6.7 87.27-6.03 88.65-5.35 90.2-5.35L90.2-5.35Q94.34-5.35 94.34-7.3L94.34-7.3Q94.34-8.3 93.05-8.75 91.75-9.2 88.8-9.7L88.8-9.7Q85.25-10.3 82.97-11 80.7-11.7 79-13.38 77.3-15.05 77.3-18.05L77.3-18.05Q77.3-22.9 80.97-24.95 84.65-27 90.55-27L90.55-27ZM118.49-23.65Q120.09-25.25 122.24-26.13 124.39-27 126.74-27L126.74-27Q131.34-27 133.64-24.45 135.94-21.9 135.94-17.1L135.94-17.1 135.94 0 125.99 0 125.99-15.9Q125.99-17.6 125.12-18.63 124.24-19.65 122.64-19.65L122.64-19.65Q120.79-19.65 119.64-18.45 118.49-17.25 118.49-15.5L118.49-15.5 118.49 0 108.54 0 108.54-36.25 118.49-36.25 118.49-23.65ZM154.14 0L143.09 0 143.09-34.4 154.14-34.4 154.14 0ZM196.39-27Q200.89-27 203.14-24.43 205.39-21.85 205.39-17.1L205.39-17.1 205.39 0 195.44 0 195.44-15.9Q195.44-17.6 194.61-18.63 193.79-19.65 192.29-19.65L192.29-19.65Q190.54-19.65 189.44-18.45 188.34-17.25 188.34-15.5L188.34-15.5 188.34 0 178.39 0 178.39-15.9Q178.39-17.6 177.56-18.63 176.74-19.65 175.24-19.65L175.24-19.65Q173.49-19.65 172.39-18.45 171.29-17.25 171.29-15.5L171.29-15.5 171.29 0 161.34 0 161.34-26.4 169.49-26.4 170.14-22.45Q171.64-24.55 174.11-25.78 176.59-27 179.34-27L179.34-27Q185.29-27 187.34-22.45L187.34-22.45Q188.89-24.55 191.31-25.78 193.74-27 196.39-27L196.39-27ZM224.39-27Q230.44-27 234.24-24.98 238.04-22.95 238.04-18.4L238.04-18.4 238.04-8.1Q238.04-7.25 238.44-6.7 238.84-6.15 239.64-6.15L239.64-6.15 241.44-6.15 241.44-0.4Q241.29-0.3 240.66-0.08 240.04 0.15 238.89 0.38 237.74 0.6 236.24 0.6L236.24 0.6Q233.34 0.6 231.46-0.28 229.59-1.15 228.89-2.7L228.89-2.7Q226.99-1.2 224.64-0.3 222.29 0.6 219.14 0.6L219.14 0.6Q209.84 0.6 209.84-6.8L209.84-6.8Q209.84-10.65 211.91-12.68 213.99-14.7 217.89-15.45 221.79-16.2 228.09-16.2L228.09-16.2 228.09-17.5Q228.09-19.05 227.01-19.85 225.94-20.65 224.24-20.65L224.24-20.65Q222.69-20.65 221.56-20.1 220.44-19.55 220.44-18.35L220.44-18.35 220.44-18.15 210.64-18.15Q210.59-18.4 210.59-18.85L210.59-18.85Q210.59-22.6 214.16-24.8 217.74-27 224.39-27L224.39-27ZM228.09-11.5Q223.84-11.5 221.81-10.58 219.79-9.65 219.79-8.1L219.79-8.1Q219.79-5.6 223.19-5.6L223.19-5.6Q225.14-5.6 226.61-6.65 228.09-7.7 228.09-9.25L228.09-9.25 228.09-11.5ZM275.18-31.35Q275.18-28.3 273.66-26.65 272.13-25 269.08-24.2L269.08-24.2Q270.53-23.1 271.36-21.63 272.18-20.15 272.18-18.5L272.18-18.5Q272.18-14.3 269.01-12.15 265.83-10 261.08-10L261.08-10 257.28-10Q254.13-10 254.13-8.55L254.13-8.55Q254.13-7.85 254.83-7.43 255.53-7 257.28-7L257.28-7 266.28-7Q270.68-7 272.93-4.7 275.18-2.4 275.18 1.45L275.18 1.45Q275.18 4.3 273.68 6.35 272.18 8.4 269.63 9.45 267.08 10.5 264.08 10.5L264.08 10.5 249.38 10.5Q247.58 10.5 246.06 9.65 244.53 8.8 243.63 7.33 242.73 5.85 242.73 4.05L242.73 4.05Q242.73 2.1 243.93 0.53 245.13-1.05 246.93-1.85L246.93-1.85Q245.73-2.7 245.03-3.9 244.33-5.1 244.33-6.5L244.33-6.5Q244.33-8.45 245.78-10.03 247.23-11.6 249.38-12.15L249.38-12.15Q247.43-13.4 246.28-15.03 245.13-16.65 245.13-18.45L245.13-18.45Q245.13-23.05 248.86-25.03 252.58-27 258.73-27L258.73-27Q261.43-27 263.08-26.7L263.08-26.7Q265.53-28.25 266.26-29.53 266.98-30.8 266.98-31.35L266.98-31.35 275.18-31.35ZM258.63-21.8Q256.98-21.8 255.93-20.95 254.88-20.1 254.88-18.5L254.88-18.5Q254.88-16.85 255.86-16.03 256.83-15.2 258.63-15.2L258.63-15.2Q260.43-15.2 261.46-16.03 262.48-16.85 262.48-18.5L262.48-18.5Q262.48-20.15 261.46-20.98 260.43-21.8 258.63-21.8L258.63-21.8ZM254.78 0Q253.63 0 252.91 0.63 252.18 1.25 252.18 2.4L252.18 2.4Q252.18 3.55 252.93 4.25 253.68 4.95 254.78 4.95L254.78 4.95 262.58 4.95Q263.68 4.95 264.46 4.28 265.23 3.6 265.23 2.45L265.23 2.45Q265.23 1.3 264.48 0.65 263.73 0 262.58 0L262.58 0 254.78 0ZM289.13-29.5L279.18-29.5 279.18-36.25 289.13-36.25 289.13-29.5ZM289.13 0L279.18 0 279.18-26.4 289.13-26.4 289.13 0ZM313.68-27Q318.28-27 320.58-24.45 322.88-21.9 322.88-17.1L322.88-17.1 322.88 0 312.93 0 312.93-15.9Q312.93-17.6 312.05-18.63 311.18-19.65 309.58-19.65L309.58-19.65Q307.73-19.65 306.58-18.45 305.43-17.25 305.43-15.5L305.43-15.5 305.43 0 295.48 0 295.48-26.4 303.63-26.4 304.28-22.4Q305.83-24.5 308.35-25.75 310.88-27 313.68-27L313.68-27Z" opacity="1" transform="matrix(1,0,0,1,0,0)" fill="#000000" class="undefined-text-0" data-fill-palette-color="primary" id="text-0"></path></svg></g></svg></g></svg></g></svg></g><g></g></svg></g></svg></g></svg></g></svg></g><defs></defs></svg><rect width="395.52" height="247.2" fill="none" stroke="none" visibility="hidden"></rect></g></svg></g></svg>